<svg xmlns="http://www.w3.org/2000/svg" xmlns:xlink="http://www.w3.org/1999/xlink" viewBox="0 0 144.773 144.773" style="enable-background:new 0 0 144.773 144.773" xml:space="preserve"><circle style="fill:#fdc20e" cx="72.387" cy="72.386" r="72.386"/><defs><circle id="a" cx="72.387" cy="72.386" r="72.386"/></defs><clipPath id="b"><use xlink:href="#a" style="overflow:visible"/></clipPath><g style="clip-path:url(#b)"><path style="fill:#f1c9a5" d="M107.053 116.94c-4.666-8.833-34.666-14.376-34.666-14.376s-30 5.543-34.666 14.376c-3.449 12.258-6.334 27.833-6.334 27.833h82s-1.949-16.7-6.334-27.833z"/><path style="fill:#e4b692" d="M72.387 102.564s30 5.543 34.666 14.376c4.386 11.133 6.334 27.833 6.334 27.833h-41v-42.209z"/><path style="fill:#f1c9a5" d="M64.22 84.606h16.334v27.336H64.22z"/><path style="fill:#e4b692" d="M72.387 84.606h8.167v27.336h-8.167z"/><path style="opacity:.1;fill:#ddac8c" d="M64.22 97.273c1.469 4.217 7.397 6.634 11.751 6.634 1.575 0 3.107-.264 4.583-.747V84.606H64.22v12.667z"/><path style="fill:#f1c9a5" d="M93.387 67.357c0-17.074-9.402-26.783-21-26.783s-21 9.709-21 26.783c0 22.966 9.402 30.917 21 30.917 11.597 0 21-8.908 21-30.917z"/><path style="fill:#e4b692" d="M90.19 79.197c-3.807-.399-6.377-4.5-5.732-9.156.637-4.66 4.242-8.12 8.051-7.724 3.805.396 6.371 4.496 5.729 9.156-.639 4.661-4.241 8.118-8.048 7.724z"/><path style="fill:#f1c9a5" d="M46.685 71.474c-.643-4.66 1.924-8.76 5.727-9.156 3.811-.397 7.416 3.063 8.055 7.724.642 4.656-1.93 8.758-5.734 9.156-3.808.393-7.41-3.064-8.048-7.724z"/><path style="fill:#e4b692" d="M93.387 67.357c0-17.074-9.402-26.783-21-26.783v57.7c11.597 0 21-8.908 21-30.917z"/><path style="fill:#3595bb" d="M107.053 116.94c-2.726-5.158-14.082-9.191-23.065-11.656l-11.601 13.26-11.601-13.26c-8.983 2.465-20.34 6.498-23.065 11.656-3.449 12.258-6.334 27.833-6.334 27.833h82s-1.949-16.7-6.334-27.833z"/><path style="fill:#262421" d="M54.766 75.53s14.835-10.124 16.581-15.708c-.175 5.061 0 9.599 0 9.599s14.487-14.311 13.09-26.005c-16.406-8.728-29.147 1.396-32.115 6.108-2.968 4.712-3.666 17.803 2.444 26.006z"/><path style="fill:#262421" d="M82.342 48.127s6.808 8.205 8.204 24.611c4.887-7.157 10.123-27.927-6.109-29.322-1.397 2.617-2.095 4.711-2.095 4.711z"/><path style="fill:#fff" d="m87.385 121.332-9.077-8.437-5.936 5.648 9.865-14.084s3.217.356 4.361 3.86c.358 5.507.787 13.013.787 13.013z"/><path style="fill:#27aae1" d="M69.179 144.773h3.208v-26.229l-3.208-3.039z"/><path style="fill:#fff" d="m57.359 121.332 9.077-8.437 5.936 5.648-9.865-14.084s-3.217.356-4.361 3.86c-.358 5.507-.787 13.013-.787 13.013z"/></g></svg>