<svg xmlns="http://www.w3.org/2000/svg" xmlns:xlink="http://www.w3.org/1999/xlink" viewBox="0 0 144.773 144.773" style="enable-background:new 0 0 144.773 144.773" xml:space="preserve"><circle style="fill:#fc6121" cx="72.387" cy="72.386" r="72.386"/><defs><circle id="a" cx="72.387" cy="72.386" r="72.386"/></defs><clipPath id="b"><use xlink:href="#a" style="overflow:visible"/></clipPath><g style="clip-path:url(#b)"><path style="fill:#f1c9a5" d="M107.529 116.94c-4.666-8.833-34.666-14.376-34.666-14.376s-30 5.543-34.666 14.376c-3.449 12.258-6.334 27.833-6.334 27.833h82s-1.947-16.7-6.334-27.833z"/><path style="fill:#e4b692" d="M72.863 102.564s30 5.543 34.666 14.376c4.387 11.133 6.334 27.833 6.334 27.833h-41v-42.209z"/><path style="fill:#f1c9a5" d="M64.697 84.606h16.334v27.336H64.697z"/><path style="fill:#e4b692" d="M72.863 84.606h8.168v27.336h-8.168z"/><path style="opacity:.1;fill:#ddac8c" d="M64.697 97.273c1.469 4.217 7.396 6.634 11.75 6.634 1.576 0 3.107-.264 4.584-.747V84.606H64.697v12.667z"/><path style="fill:#fff" d="M107.529 116.94c-2.725-5.158-14.082-9.191-23.064-11.656-.352 6.11-5.402 10.96-11.602 10.96-6.197 0-11.248-4.85-11.6-10.96-8.984 2.465-20.34 6.498-23.066 11.656-3.449 12.258-6.334 27.833-6.334 27.833h82s-1.947-16.7-6.334-27.833z"/><path style="fill:#f1c9a5" d="M93.863 67.357c0-17.074-9.402-26.783-21-26.783s-21 9.709-21 26.783c0 7.153 2.189 22.991 5.924 26.219 2.566 2.279 10.939 6.183 15.033 6.183h.002l.043-.002.041.002h.002c4.096 0 12.469-3.903 15.033-6.183 3.883-4.102 5.922-19.653 5.922-26.219z"/><path style="fill:#e4b692" d="m72.865 99.757.041.002h.002c4.096 0 12.469-3.903 15.033-6.183 3.883-4.103 5.922-19.653 5.922-26.219 0-17.074-9.402-26.783-21-26.783v59.183h.002z"/><path style="fill:#e4b692" d="M90.668 79.197c-3.807-.398-6.377-4.5-5.732-9.156.637-4.66 4.242-8.12 8.051-7.724 3.805.396 6.371 4.496 5.729 9.156-.64 4.661-4.241 8.118-8.048 7.724z"/><path style="fill:#f1c9a5" d="M47.162 71.474c-.643-4.66 1.924-8.76 5.727-9.156 3.811-.396 7.416 3.063 8.055 7.724.643 4.656-1.93 8.758-5.734 9.156-3.808.393-7.409-3.064-8.048-7.724z"/><path style="fill:#262421" d="M52.219 52.343c-2.051 4.316-1.789 10.841-1.789 10.841s2.502.69 3.355 3.823c0-7.545 1.025-16.064 7.262-16.657 5.623-.533 5.195 1.922 11.816 1.922V38.35s-13.996 0-20.644 13.993zM93.508 52.343C87.617 38.35 72.863 38.35 72.863 38.35v13.922c6.621 0 6.193-2.455 11.816-1.922 6.236.593 7.26 9.112 7.26 16.657.855-3.133 3.346-3.909 3.346-3.909s.076-6.351-1.777-10.755z"/><g><path style="fill:#262421" d="M72.865 84.606v2.576l-7.25 1.214v-.964z"/><path style="fill:#262421" d="M72.863 84.606v2.576l7.25 1.214v-.964z"/></g></g></svg>