<svg xmlns="http://www.w3.org/2000/svg" xmlns:xlink="http://www.w3.org/1999/xlink" viewBox="0 0 144.773 144.773" style="enable-background:new 0 0 144.773 144.773" xml:space="preserve"><circle style="fill:#14b0bf" cx="72.387" cy="72.386" r="72.386"/><defs><circle id="a" cx="72.387" cy="72.386" r="72.386"/></defs><clipPath id="b"><use xlink:href="#a" style="overflow:visible"/></clipPath><g style="clip-path:url(#b)"><path style="fill:#f1c9a5" d="M107.053 116.94c-4.666-8.833-34.666-14.376-34.666-14.376s-30 5.543-34.666 14.376c-3.449 12.258-6.334 27.833-6.334 27.833h82s-1.949-16.7-6.334-27.833z"/><path style="fill:#e4b692" d="M72.387 102.564s30 5.543 34.666 14.376c4.386 11.133 6.334 27.833 6.334 27.833h-41v-42.209z"/><path style="fill:#f1c9a5" d="M64.22 84.606h16.334v27.336H64.22z"/><path style="fill:#e4b692" d="M72.387 84.606h8.167v27.336h-8.167z"/><path style="opacity:.1;fill:#ddac8c" d="M64.22 97.273c1.469 4.217 7.397 6.634 11.751 6.634 1.575 0 3.107-.264 4.583-.747V84.606H64.22v12.667z"/><path style="fill:#f1c9a5" d="M93.387 67.357c0-17.074-9.402-26.783-21-26.783s-21 9.709-21 26.783c0 22.966 9.402 30.917 21 30.917 11.597 0 21-8.908 21-30.917z"/><path style="fill:#e4b692" d="M90.19 79.197c-3.807-.399-6.377-4.5-5.733-9.156.637-4.66 4.242-8.12 8.051-7.724 3.805.396 6.371 4.496 5.729 9.156-.638 4.661-4.24 8.118-8.047 7.724z"/><path style="fill:#f1c9a5" d="M46.685 71.474c-.643-4.66 1.924-8.76 5.727-9.156 3.81-.397 7.416 3.063 8.055 7.724.642 4.656-1.93 8.758-5.734 9.156-3.808.393-7.41-3.064-8.048-7.724z"/><path style="fill:#e4b692" d="M93.387 67.357c0-17.074-9.402-26.783-21-26.783v57.7c11.597 0 21-8.908 21-30.917z"/><path style="fill:#0d313d" d="M107.053 116.94c-2.726-5.158-14.082-9.191-23.065-11.656l-11.601 39.489-11.601-39.489c-8.983 2.465-20.34 6.498-23.066 11.656-3.449 12.258-6.334 27.833-6.334 27.833h82c.001 0-1.948-16.7-6.333-27.833z"/><path style="fill:#f1f2f2" d="m60.413 105.284 11.974 39.489 11.645-39.489-11.645 13.26z"/><path style="fill:#2b5770" d="m72.387 144.773 17.728-19.745-6.083-2.304 10.583-14.375-10.284-3.065zM72.387 144.773l-17.729-19.745 6.083-2.304-10.583-14.375 10.284-3.065z"/><path style="fill:#fff" d="m57.359 121.332 9.077-8.437 5.935 5.648-8.152-14.161-4.979.383c-.357 5.506-1.881 16.567-1.881 16.567zM87.385 121.332l-9.077-8.437-5.936 5.648 8.152-14.161 4.979.383c.358 5.506 1.882 16.567 1.882 16.567z"/><path style="fill:#262421" d="M95.443 63.508s-3.744-2.825-5.348 5.467c.521-7.792.142-18.541-6.181-20.508-3.513 6.321-17.418 10.393-26.549 8.146.701 7.165-1.404 13.066-3.793 14.61.14-5.76.138-9.273-3.514-8.148-.982-12.08 5.634-27.393 23.474-27.393 17.841.001 23.738 12.091 21.911 27.826z"/></g></svg>